<svg width="835" height="393" viewBox="0 0 835 393" fill="none" xmlns="http://www.w3.org/2000/svg">
<mask id="path-1-inside-1" fill="white">
<rect width="835" height="197" rx="12"/>
</mask>
<rect width="835" height="197" rx="12" stroke="#F4CD6D" stroke-width="80" mask="url(#path-1-inside-1)"/>
<rect x="48" y="44" width="193" height="287" rx="5" fill="#008F68"/>
<rect x="399" y="45" width="238" height="348" rx="5" fill="#008F68"/>
<path d="M67.7734 298.484V299.25H70.4609V301.008H67.7734V308H65.4844V301.008H63.3594V299.25H65.4844V298.641C65.4844 297.589 65.7031 296.859 66.1406 296.453C66.5781 296.047 67.3906 295.844 68.5781 295.844H70.4609V297.602H68.6719C68.3281 297.602 68.0938 297.664 67.9688 297.789C67.849 297.914 67.7839 298.146 67.7734 298.484ZM74.6641 304.352V297.602H72.3438V295.844H76.9531V304.352C76.9531 305.039 77.0599 305.526 77.2734 305.812C77.487 306.099 77.849 306.242 78.3594 306.242H80.1875V308H77.7188C76.6302 308 75.849 307.719 75.375 307.156C74.901 306.594 74.6641 305.659 74.6641 304.352ZM86.0938 300.898C85.5469 300.898 85.1172 301.141 84.8047 301.625C84.4922 302.104 84.3359 302.773 84.3359 303.633C84.3359 304.492 84.4922 305.164 84.8047 305.648C85.1172 306.128 85.5469 306.367 86.0938 306.367C86.6458 306.367 87.0781 306.128 87.3906 305.648C87.7031 305.164 87.8594 304.492 87.8594 303.633C87.8594 302.773 87.7031 302.104 87.3906 301.625C87.0781 301.141 86.6458 300.898 86.0938 300.898ZM82.0469 303.633C82.0469 302.221 82.4115 301.104 83.1406 300.281C83.875 299.453 84.8594 299.039 86.0938 299.039C87.3333 299.039 88.3177 299.453 89.0469 300.281C89.7812 301.104 90.1484 302.221 90.1484 303.633C90.1484 305.044 89.7812 306.164 89.0469 306.992C88.3177 307.815 87.3333 308.227 86.0938 308.227C84.8594 308.227 83.875 307.815 83.1406 306.992C82.4115 306.164 82.0469 305.044 82.0469 303.633ZM96.3906 303.891C95.5365 303.891 94.9401 304 94.6016 304.219C94.263 304.438 94.0938 304.812 94.0938 305.344C94.0938 305.74 94.2109 306.055 94.4453 306.289C94.6797 306.523 94.9974 306.641 95.3984 306.641C96.0026 306.641 96.4714 306.414 96.8047 305.961C97.138 305.503 97.3047 304.865 97.3047 304.047V303.891H96.3906ZM99.5781 303.008V308H97.3047V307.023C97.0286 307.409 96.6745 307.706 96.2422 307.914C95.8099 308.122 95.3333 308.227 94.8125 308.227C93.8177 308.227 93.0417 307.964 92.4844 307.438C91.9323 306.911 91.6562 306.177 91.6562 305.234C91.6562 304.214 91.987 303.461 92.6484 302.977C93.3099 302.487 94.3333 302.242 95.7188 302.242H97.3047V301.859C97.3047 301.49 97.1693 301.211 96.8984 301.023C96.6328 300.831 96.2396 300.734 95.7188 300.734C95.1719 300.734 94.6406 300.805 94.125 300.945C93.6146 301.081 93.0807 301.299 92.5234 301.602V299.648C93.0286 299.44 93.5417 299.286 94.0625 299.188C94.5833 299.089 95.1354 299.039 95.7188 299.039C97.1406 299.039 98.138 299.328 98.7109 299.906C99.2891 300.484 99.5781 301.518 99.5781 303.008ZM105.953 296.766V299.25H108.945V301.008H105.953V305.148C105.953 305.539 106.047 305.82 106.234 305.992C106.427 306.159 106.745 306.242 107.188 306.242H108.945V308H107.023C105.711 308 104.823 307.792 104.359 307.375C103.896 306.953 103.664 306.174 103.664 305.039V301.008H101.43V299.25H103.664V296.766H105.953ZM113.711 299.695H116.312V302.547H113.711V299.695ZM113.711 305.133H116.312V308H113.711V305.133ZM132.508 304.352V297.602H130.188V295.844H134.797V304.352C134.797 305.039 134.904 305.526 135.117 305.812C135.331 306.099 135.693 306.242 136.203 306.242H138.031V308H135.562C134.474 308 133.693 307.719 133.219 307.156C132.745 306.594 132.508 305.659 132.508 304.352ZM147.734 307.57C147.203 307.789 146.661 307.953 146.109 308.062C145.557 308.172 144.974 308.227 144.359 308.227C142.896 308.227 141.776 307.836 141 307.055C140.229 306.268 139.844 305.138 139.844 303.664C139.844 302.237 140.216 301.109 140.961 300.281C141.706 299.453 142.721 299.039 144.008 299.039C145.305 299.039 146.31 299.424 147.023 300.195C147.742 300.961 148.102 302.042 148.102 303.438V304.367H142.172C142.177 305.055 142.38 305.568 142.781 305.906C143.182 306.245 143.781 306.414 144.578 306.414C145.104 306.414 145.622 306.339 146.133 306.188C146.643 306.036 147.177 305.797 147.734 305.469V307.57ZM145.797 302.648C145.786 302.044 145.63 301.589 145.328 301.281C145.031 300.969 144.591 300.812 144.008 300.812C143.482 300.812 143.062 300.974 142.75 301.297C142.438 301.615 142.253 302.068 142.195 302.656L145.797 302.648ZM154.539 298.484V299.25H157.227V301.008H154.539V308H152.25V301.008H150.125V299.25H152.25V298.641C152.25 297.589 152.469 296.859 152.906 296.453C153.344 296.047 154.156 295.844 155.344 295.844H157.227V297.602H155.438C155.094 297.602 154.859 297.664 154.734 297.789C154.615 297.914 154.549 298.146 154.539 298.484ZM163.797 296.766V299.25H166.789V301.008H163.797V305.148C163.797 305.539 163.891 305.82 164.078 305.992C164.271 306.159 164.589 306.242 165.031 306.242H166.789V308H164.867C163.555 308 162.667 307.792 162.203 307.375C161.74 306.953 161.508 306.174 161.508 305.039V301.008H159.273V299.25H161.508V296.766H163.797ZM171.555 305.133H174.156V307.25L172.625 310.242H170.945L171.555 307.25V305.133ZM171.555 299.695H174.156V302.547H171.555V299.695Z" fill="#1AE1AA"/>
<rect x="252" y="44" width="136" height="180" rx="5" fill="#008F68"/>
<path d="M266.773 194.484V195.25H269.461V197.008H266.773V204H264.484V197.008H262.359V195.25H264.484V194.641C264.484 193.589 264.703 192.859 265.141 192.453C265.578 192.047 266.391 191.844 267.578 191.844H269.461V193.602H267.672C267.328 193.602 267.094 193.664 266.969 193.789C266.849 193.914 266.784 194.146 266.773 194.484ZM273.664 200.352V193.602H271.344V191.844H275.953V200.352C275.953 201.039 276.06 201.526 276.273 201.812C276.487 202.099 276.849 202.242 277.359 202.242H279.188V204H276.719C275.63 204 274.849 203.719 274.375 203.156C273.901 202.594 273.664 201.659 273.664 200.352ZM285.094 196.898C284.547 196.898 284.117 197.141 283.805 197.625C283.492 198.104 283.336 198.773 283.336 199.633C283.336 200.492 283.492 201.164 283.805 201.648C284.117 202.128 284.547 202.367 285.094 202.367C285.646 202.367 286.078 202.128 286.391 201.648C286.703 201.164 286.859 200.492 286.859 199.633C286.859 198.773 286.703 198.104 286.391 197.625C286.078 197.141 285.646 196.898 285.094 196.898ZM281.047 199.633C281.047 198.221 281.411 197.104 282.141 196.281C282.875 195.453 283.859 195.039 285.094 195.039C286.333 195.039 287.318 195.453 288.047 196.281C288.781 197.104 289.148 198.221 289.148 199.633C289.148 201.044 288.781 202.164 288.047 202.992C287.318 203.815 286.333 204.227 285.094 204.227C283.859 204.227 282.875 203.815 282.141 202.992C281.411 202.164 281.047 201.044 281.047 199.633ZM295.391 199.891C294.536 199.891 293.94 200 293.602 200.219C293.263 200.438 293.094 200.812 293.094 201.344C293.094 201.74 293.211 202.055 293.445 202.289C293.68 202.523 293.997 202.641 294.398 202.641C295.003 202.641 295.471 202.414 295.805 201.961C296.138 201.503 296.305 200.865 296.305 200.047V199.891H295.391ZM298.578 199.008V204H296.305V203.023C296.029 203.409 295.674 203.706 295.242 203.914C294.81 204.122 294.333 204.227 293.812 204.227C292.818 204.227 292.042 203.964 291.484 203.438C290.932 202.911 290.656 202.177 290.656 201.234C290.656 200.214 290.987 199.461 291.648 198.977C292.31 198.487 293.333 198.242 294.719 198.242H296.305V197.859C296.305 197.49 296.169 197.211 295.898 197.023C295.633 196.831 295.24 196.734 294.719 196.734C294.172 196.734 293.641 196.805 293.125 196.945C292.615 197.081 292.081 197.299 291.523 197.602V195.648C292.029 195.44 292.542 195.286 293.062 195.188C293.583 195.089 294.135 195.039 294.719 195.039C296.141 195.039 297.138 195.328 297.711 195.906C298.289 196.484 298.578 197.518 298.578 199.008ZM304.953 192.766V195.25H307.945V197.008H304.953V201.148C304.953 201.539 305.047 201.82 305.234 201.992C305.427 202.159 305.745 202.242 306.188 202.242H307.945V204H306.023C304.711 204 303.823 203.792 303.359 203.375C302.896 202.953 302.664 202.174 302.664 201.039V197.008H300.43V195.25H302.664V192.766H304.953ZM312.711 195.695H315.312V198.547H312.711V195.695ZM312.711 201.133H315.312V204H312.711V201.133ZM331.508 200.352V193.602H329.188V191.844H333.797V200.352C333.797 201.039 333.904 201.526 334.117 201.812C334.331 202.099 334.693 202.242 335.203 202.242H337.031V204H334.562C333.474 204 332.693 203.719 332.219 203.156C331.745 202.594 331.508 201.659 331.508 200.352ZM346.734 203.57C346.203 203.789 345.661 203.953 345.109 204.062C344.557 204.172 343.974 204.227 343.359 204.227C341.896 204.227 340.776 203.836 340 203.055C339.229 202.268 338.844 201.138 338.844 199.664C338.844 198.237 339.216 197.109 339.961 196.281C340.706 195.453 341.721 195.039 343.008 195.039C344.305 195.039 345.31 195.424 346.023 196.195C346.742 196.961 347.102 198.042 347.102 199.438V200.367H341.172C341.177 201.055 341.38 201.568 341.781 201.906C342.182 202.245 342.781 202.414 343.578 202.414C344.104 202.414 344.622 202.339 345.133 202.188C345.643 202.036 346.177 201.797 346.734 201.469V203.57ZM344.797 198.648C344.786 198.044 344.63 197.589 344.328 197.281C344.031 196.969 343.591 196.812 343.008 196.812C342.482 196.812 342.062 196.974 341.75 197.297C341.438 197.615 341.253 198.068 341.195 198.656L344.797 198.648ZM353.539 194.484V195.25H356.227V197.008H353.539V204H351.25V197.008H349.125V195.25H351.25V194.641C351.25 193.589 351.469 192.859 351.906 192.453C352.344 192.047 353.156 191.844 354.344 191.844H356.227V193.602H354.438C354.094 193.602 353.859 193.664 353.734 193.789C353.615 193.914 353.549 194.146 353.539 194.484ZM362.797 192.766V195.25H365.789V197.008H362.797V201.148C362.797 201.539 362.891 201.82 363.078 201.992C363.271 202.159 363.589 202.242 364.031 202.242H365.789V204H363.867C362.555 204 361.667 203.792 361.203 203.375C360.74 202.953 360.508 202.174 360.508 201.039V197.008H358.273V195.25H360.508V192.766H362.797ZM370.555 201.133H373.156V203.25L371.625 206.242H369.945L370.555 203.25V201.133ZM370.555 195.695H373.156V198.547H370.555V195.695Z" fill="#1AE1AA"/>
<rect x="645" y="45" width="144" height="106" rx="5" fill="#6DB65B"/>
<path d="M660.169 125.873V126.639H662.857V128.397H660.169V135.389H657.88V128.397H655.755V126.639H657.88V126.03C657.88 124.977 658.099 124.248 658.537 123.842C658.974 123.436 659.787 123.233 660.974 123.233H662.857V124.99H661.068C660.724 124.99 660.49 125.053 660.365 125.178C660.245 125.303 660.18 125.535 660.169 125.873ZM667.06 131.74V124.99H664.74V123.233H669.349V131.74C669.349 132.428 669.456 132.915 669.669 133.201C669.883 133.488 670.245 133.631 670.755 133.631H672.583V135.389H670.115C669.026 135.389 668.245 135.108 667.771 134.545C667.297 133.983 667.06 133.048 667.06 131.74ZM678.49 128.287C677.943 128.287 677.513 128.53 677.201 129.014C676.888 129.493 676.732 130.162 676.732 131.022C676.732 131.881 676.888 132.553 677.201 133.037C677.513 133.517 677.943 133.756 678.49 133.756C679.042 133.756 679.474 133.517 679.787 133.037C680.099 132.553 680.255 131.881 680.255 131.022C680.255 130.162 680.099 129.493 679.787 129.014C679.474 128.53 679.042 128.287 678.49 128.287ZM674.443 131.022C674.443 129.61 674.807 128.493 675.537 127.67C676.271 126.842 677.255 126.428 678.49 126.428C679.729 126.428 680.714 126.842 681.443 127.67C682.177 128.493 682.544 129.61 682.544 131.022C682.544 132.433 682.177 133.553 681.443 134.381C680.714 135.204 679.729 135.615 678.49 135.615C677.255 135.615 676.271 135.204 675.537 134.381C674.807 133.553 674.443 132.433 674.443 131.022ZM688.787 131.28C687.932 131.28 687.336 131.389 686.998 131.608C686.659 131.826 686.49 132.201 686.49 132.733C686.49 133.128 686.607 133.444 686.841 133.678C687.076 133.912 687.393 134.03 687.794 134.03C688.399 134.03 688.867 133.803 689.201 133.35C689.534 132.892 689.701 132.253 689.701 131.436V131.28H688.787ZM691.974 130.397V135.389H689.701V134.412C689.425 134.798 689.07 135.095 688.638 135.303C688.206 135.511 687.729 135.615 687.208 135.615C686.214 135.615 685.438 135.352 684.88 134.826C684.328 134.3 684.052 133.566 684.052 132.623C684.052 131.602 684.383 130.85 685.044 130.365C685.706 129.876 686.729 129.631 688.115 129.631H689.701V129.248C689.701 128.878 689.565 128.6 689.294 128.412C689.029 128.22 688.636 128.123 688.115 128.123C687.568 128.123 687.037 128.194 686.521 128.334C686.011 128.47 685.477 128.688 684.919 128.99V127.037C685.425 126.829 685.938 126.675 686.458 126.576C686.979 126.477 687.531 126.428 688.115 126.428C689.537 126.428 690.534 126.717 691.107 127.295C691.685 127.873 691.974 128.907 691.974 130.397ZM698.349 124.155V126.639H701.341V128.397H698.349V132.537C698.349 132.928 698.443 133.209 698.63 133.381C698.823 133.548 699.141 133.631 699.583 133.631H701.341V135.389H699.419C698.107 135.389 697.219 135.181 696.755 134.764C696.292 134.342 696.06 133.563 696.06 132.428V128.397H693.826V126.639H696.06V124.155H698.349ZM706.107 127.084H708.708V129.936H706.107V127.084ZM706.107 132.522H708.708V135.389H706.107V132.522ZM730.248 129.709V135.389H727.974V130.061C727.974 129.425 727.883 128.972 727.701 128.701C727.524 128.425 727.232 128.287 726.826 128.287C726.414 128.287 726.089 128.472 725.849 128.842C725.615 129.212 725.498 129.725 725.498 130.381V135.389H723.224V126.639H725.498V127.951C725.659 127.467 725.935 127.092 726.326 126.826C726.716 126.561 727.188 126.428 727.74 126.428C728.568 126.428 729.193 126.704 729.615 127.256C730.037 127.803 730.248 128.621 730.248 129.709ZM736.333 128.287C735.787 128.287 735.357 128.53 735.044 129.014C734.732 129.493 734.576 130.162 734.576 131.022C734.576 131.881 734.732 132.553 735.044 133.037C735.357 133.517 735.787 133.756 736.333 133.756C736.886 133.756 737.318 133.517 737.63 133.037C737.943 132.553 738.099 131.881 738.099 131.022C738.099 130.162 737.943 129.493 737.63 129.014C737.318 128.53 736.886 128.287 736.333 128.287ZM732.287 131.022C732.287 129.61 732.651 128.493 733.38 127.67C734.115 126.842 735.099 126.428 736.333 126.428C737.573 126.428 738.557 126.842 739.287 127.67C740.021 128.493 740.388 129.61 740.388 131.022C740.388 132.433 740.021 133.553 739.287 134.381C738.557 135.204 737.573 135.615 736.333 135.615C735.099 135.615 734.115 135.204 733.38 134.381C732.651 133.553 732.287 132.433 732.287 131.022ZM749.529 129.709V135.389H747.255V130.061C747.255 129.425 747.164 128.972 746.982 128.701C746.805 128.425 746.513 128.287 746.107 128.287C745.695 128.287 745.37 128.472 745.13 128.842C744.896 129.212 744.779 129.725 744.779 130.381V135.389H742.505V126.639H744.779V127.951C744.94 127.467 745.216 127.092 745.607 126.826C745.998 126.561 746.469 126.428 747.021 126.428C747.849 126.428 748.474 126.704 748.896 127.256C749.318 127.803 749.529 128.621 749.529 129.709ZM759.412 134.959C758.88 135.178 758.339 135.342 757.787 135.451C757.235 135.561 756.651 135.615 756.037 135.615C754.573 135.615 753.453 135.225 752.677 134.444C751.906 133.657 751.521 132.527 751.521 131.053C751.521 129.626 751.893 128.498 752.638 127.67C753.383 126.842 754.399 126.428 755.685 126.428C756.982 126.428 757.987 126.813 758.701 127.584C759.419 128.35 759.779 129.431 759.779 130.826V131.756H753.849C753.854 132.444 754.057 132.957 754.458 133.295C754.86 133.634 755.458 133.803 756.255 133.803C756.781 133.803 757.3 133.727 757.81 133.576C758.32 133.425 758.854 133.186 759.412 132.858V134.959ZM757.474 130.037C757.464 129.433 757.307 128.977 757.005 128.67C756.708 128.358 756.268 128.201 755.685 128.201C755.159 128.201 754.74 128.363 754.427 128.686C754.115 129.003 753.93 129.457 753.873 130.045L757.474 130.037ZM763.951 132.522H766.552V134.639L765.021 137.631H763.341L763.951 134.639V132.522ZM763.951 127.084H766.552V129.936H763.951V127.084Z" fill="#B1F2A1"/>
<path d="M414.773 363.484V364.25H417.461V366.008H414.773V373H412.484V366.008H410.359V364.25H412.484V363.641C412.484 362.589 412.703 361.859 413.141 361.453C413.578 361.047 414.391 360.844 415.578 360.844H417.461V362.602H415.672C415.328 362.602 415.094 362.664 414.969 362.789C414.849 362.914 414.784 363.146 414.773 363.484ZM421.664 369.352V362.602H419.344V360.844H423.953V369.352C423.953 370.039 424.06 370.526 424.273 370.812C424.487 371.099 424.849 371.242 425.359 371.242H427.188V373H424.719C423.63 373 422.849 372.719 422.375 372.156C421.901 371.594 421.664 370.659 421.664 369.352ZM433.094 365.898C432.547 365.898 432.117 366.141 431.805 366.625C431.492 367.104 431.336 367.773 431.336 368.633C431.336 369.492 431.492 370.164 431.805 370.648C432.117 371.128 432.547 371.367 433.094 371.367C433.646 371.367 434.078 371.128 434.391 370.648C434.703 370.164 434.859 369.492 434.859 368.633C434.859 367.773 434.703 367.104 434.391 366.625C434.078 366.141 433.646 365.898 433.094 365.898ZM429.047 368.633C429.047 367.221 429.411 366.104 430.141 365.281C430.875 364.453 431.859 364.039 433.094 364.039C434.333 364.039 435.318 364.453 436.047 365.281C436.781 366.104 437.148 367.221 437.148 368.633C437.148 370.044 436.781 371.164 436.047 371.992C435.318 372.815 434.333 373.227 433.094 373.227C431.859 373.227 430.875 372.815 430.141 371.992C429.411 371.164 429.047 370.044 429.047 368.633ZM443.391 368.891C442.536 368.891 441.94 369 441.602 369.219C441.263 369.438 441.094 369.812 441.094 370.344C441.094 370.74 441.211 371.055 441.445 371.289C441.68 371.523 441.997 371.641 442.398 371.641C443.003 371.641 443.471 371.414 443.805 370.961C444.138 370.503 444.305 369.865 444.305 369.047V368.891H443.391ZM446.578 368.008V373H444.305V372.023C444.029 372.409 443.674 372.706 443.242 372.914C442.81 373.122 442.333 373.227 441.812 373.227C440.818 373.227 440.042 372.964 439.484 372.438C438.932 371.911 438.656 371.177 438.656 370.234C438.656 369.214 438.987 368.461 439.648 367.977C440.31 367.487 441.333 367.242 442.719 367.242H444.305V366.859C444.305 366.49 444.169 366.211 443.898 366.023C443.633 365.831 443.24 365.734 442.719 365.734C442.172 365.734 441.641 365.805 441.125 365.945C440.615 366.081 440.081 366.299 439.523 366.602V364.648C440.029 364.44 440.542 364.286 441.062 364.188C441.583 364.089 442.135 364.039 442.719 364.039C444.141 364.039 445.138 364.328 445.711 364.906C446.289 365.484 446.578 366.518 446.578 368.008ZM452.953 361.766V364.25H455.945V366.008H452.953V370.148C452.953 370.539 453.047 370.82 453.234 370.992C453.427 371.159 453.745 371.242 454.188 371.242H455.945V373H454.023C452.711 373 451.823 372.792 451.359 372.375C450.896 371.953 450.664 371.174 450.664 370.039V366.008H448.43V364.25H450.664V361.766H452.953ZM460.711 364.695H463.312V367.547H460.711V364.695ZM460.711 370.133H463.312V373H460.711V370.133ZM479.508 369.352V362.602H477.188V360.844H481.797V369.352C481.797 370.039 481.904 370.526 482.117 370.812C482.331 371.099 482.693 371.242 483.203 371.242H485.031V373H482.562C481.474 373 480.693 372.719 480.219 372.156C479.745 371.594 479.508 370.659 479.508 369.352ZM494.734 372.57C494.203 372.789 493.661 372.953 493.109 373.062C492.557 373.172 491.974 373.227 491.359 373.227C489.896 373.227 488.776 372.836 488 372.055C487.229 371.268 486.844 370.138 486.844 368.664C486.844 367.237 487.216 366.109 487.961 365.281C488.706 364.453 489.721 364.039 491.008 364.039C492.305 364.039 493.31 364.424 494.023 365.195C494.742 365.961 495.102 367.042 495.102 368.438V369.367H489.172C489.177 370.055 489.38 370.568 489.781 370.906C490.182 371.245 490.781 371.414 491.578 371.414C492.104 371.414 492.622 371.339 493.133 371.188C493.643 371.036 494.177 370.797 494.734 370.469V372.57ZM492.797 367.648C492.786 367.044 492.63 366.589 492.328 366.281C492.031 365.969 491.591 365.812 491.008 365.812C490.482 365.812 490.062 365.974 489.75 366.297C489.438 366.615 489.253 367.068 489.195 367.656L492.797 367.648ZM501.539 363.484V364.25H504.227V366.008H501.539V373H499.25V366.008H497.125V364.25H499.25V363.641C499.25 362.589 499.469 361.859 499.906 361.453C500.344 361.047 501.156 360.844 502.344 360.844H504.227V362.602H502.438C502.094 362.602 501.859 362.664 501.734 362.789C501.615 362.914 501.549 363.146 501.539 363.484ZM510.797 361.766V364.25H513.789V366.008H510.797V370.148C510.797 370.539 510.891 370.82 511.078 370.992C511.271 371.159 511.589 371.242 512.031 371.242H513.789V373H511.867C510.555 373 509.667 372.792 509.203 372.375C508.74 371.953 508.508 371.174 508.508 370.039V366.008H506.273V364.25H508.508V361.766H510.797ZM518.555 370.133H521.156V372.25L519.625 375.242H517.945L518.555 372.25V370.133ZM518.555 364.695H521.156V367.547H518.555V364.695Z" fill="#1AE1AA"/>
<path d="M701.453 181.766V186.328H699.172V174.25H701.453V175.562C701.693 175.057 702.008 174.677 702.398 174.422C702.789 174.167 703.247 174.039 703.773 174.039C704.773 174.039 705.549 174.44 706.102 175.242C706.654 176.044 706.93 177.174 706.93 178.633C706.93 180.112 706.648 181.247 706.086 182.039C705.529 182.831 704.732 183.227 703.695 183.227C703.227 183.227 702.805 183.107 702.43 182.867C702.06 182.622 701.734 182.255 701.453 181.766ZM704.641 178.617C704.641 177.773 704.5 177.112 704.219 176.633C703.938 176.154 703.549 175.914 703.055 175.914C702.56 175.914 702.169 176.154 701.883 176.633C701.596 177.112 701.453 177.773 701.453 178.617C701.453 179.461 701.596 180.122 701.883 180.602C702.169 181.081 702.56 181.32 703.055 181.32C703.549 181.32 703.938 181.081 704.219 180.602C704.5 180.122 704.641 179.461 704.641 178.617ZM713.109 178.891C712.255 178.891 711.659 179 711.32 179.219C710.982 179.438 710.812 179.812 710.812 180.344C710.812 180.74 710.93 181.055 711.164 181.289C711.398 181.523 711.716 181.641 712.117 181.641C712.721 181.641 713.19 181.414 713.523 180.961C713.857 180.503 714.023 179.865 714.023 179.047V178.891H713.109ZM716.297 178.008V183H714.023V182.023C713.747 182.409 713.393 182.706 712.961 182.914C712.529 183.122 712.052 183.227 711.531 183.227C710.536 183.227 709.76 182.964 709.203 182.438C708.651 181.911 708.375 181.177 708.375 180.234C708.375 179.214 708.706 178.461 709.367 177.977C710.029 177.487 711.052 177.242 712.438 177.242H714.023V176.859C714.023 176.49 713.888 176.211 713.617 176.023C713.352 175.831 712.958 175.734 712.438 175.734C711.891 175.734 711.359 175.805 710.844 175.945C710.333 176.081 709.799 176.299 709.242 176.602V174.648C709.747 174.44 710.26 174.286 710.781 174.188C711.302 174.089 711.854 174.039 712.438 174.039C713.859 174.039 714.857 174.328 715.43 174.906C716.008 175.484 716.297 176.518 716.297 178.008ZM723.461 175.492V170.844H725.742V183H723.461V181.703C723.216 182.208 722.898 182.589 722.508 182.844C722.122 183.099 721.667 183.227 721.141 183.227C720.141 183.227 719.365 182.826 718.812 182.023C718.26 181.221 717.984 180.091 717.984 178.633C717.984 177.154 718.263 176.018 718.82 175.227C719.383 174.435 720.182 174.039 721.219 174.039C721.688 174.039 722.107 174.161 722.477 174.406C722.852 174.646 723.18 175.008 723.461 175.492ZM720.273 178.648C720.273 179.492 720.414 180.154 720.695 180.633C720.977 181.112 721.365 181.352 721.859 181.352C722.354 181.352 722.745 181.112 723.031 180.633C723.318 180.154 723.461 179.492 723.461 178.648C723.461 177.805 723.318 177.143 723.031 176.664C722.745 176.185 722.354 175.945 721.859 175.945C721.365 175.945 720.977 176.185 720.695 176.664C720.414 177.143 720.273 177.805 720.273 178.648ZM733.102 175.492V170.844H735.383V183H733.102V181.703C732.857 182.208 732.539 182.589 732.148 182.844C731.763 183.099 731.307 183.227 730.781 183.227C729.781 183.227 729.005 182.826 728.453 182.023C727.901 181.221 727.625 180.091 727.625 178.633C727.625 177.154 727.904 176.018 728.461 175.227C729.023 174.435 729.823 174.039 730.859 174.039C731.328 174.039 731.747 174.161 732.117 174.406C732.492 174.646 732.82 175.008 733.102 175.492ZM729.914 178.648C729.914 179.492 730.055 180.154 730.336 180.633C730.617 181.112 731.005 181.352 731.5 181.352C731.995 181.352 732.385 181.112 732.672 180.633C732.958 180.154 733.102 179.492 733.102 178.648C733.102 177.805 732.958 177.143 732.672 176.664C732.385 176.185 731.995 175.945 731.5 175.945C731.005 175.945 730.617 176.185 730.336 176.664C730.055 177.143 729.914 177.805 729.914 178.648ZM738.289 174.25H742.82V181.242H745.664V183H737.68V181.242H740.531V176.008H738.289V174.25ZM740.531 169.992H742.82V172.664H740.531V169.992ZM754.57 177.32V183H752.297V177.672C752.297 177.036 752.206 176.583 752.023 176.312C751.846 176.036 751.555 175.898 751.148 175.898C750.737 175.898 750.411 176.083 750.172 176.453C749.938 176.823 749.82 177.336 749.82 177.992V183H747.547V174.25H749.82V175.562C749.982 175.078 750.258 174.703 750.648 174.438C751.039 174.172 751.51 174.039 752.062 174.039C752.891 174.039 753.516 174.315 753.938 174.867C754.359 175.414 754.57 176.232 754.57 177.32ZM762.117 178.484C762.117 177.703 761.969 177.078 761.672 176.609C761.375 176.135 760.984 175.898 760.5 175.898C760.021 175.898 759.633 176.133 759.336 176.602C759.044 177.07 758.898 177.698 758.898 178.484C758.898 179.276 759.044 179.906 759.336 180.375C759.633 180.844 760.021 181.078 760.5 181.078C760.984 181.078 761.375 180.844 761.672 180.375C761.969 179.901 762.117 179.271 762.117 178.484ZM764.406 182.344C764.406 183.745 764.089 184.755 763.453 185.375C762.823 186 761.797 186.312 760.375 186.312C759.896 186.312 759.422 186.276 758.953 186.203C758.484 186.135 758.008 186.029 757.523 185.883V183.781C757.956 184.021 758.396 184.198 758.844 184.312C759.292 184.427 759.753 184.484 760.227 184.484C760.872 184.484 761.349 184.331 761.656 184.023C761.964 183.721 762.117 183.247 762.117 182.602V181.656C761.893 182.073 761.596 182.383 761.227 182.586C760.857 182.789 760.406 182.891 759.875 182.891C758.875 182.891 758.081 182.5 757.492 181.719C756.904 180.938 756.609 179.878 756.609 178.539C756.609 177.154 756.904 176.055 757.492 175.242C758.081 174.43 758.87 174.023 759.859 174.023C760.359 174.023 760.805 174.141 761.195 174.375C761.586 174.609 761.893 174.94 762.117 175.367V174.25H764.406V182.344ZM768.992 174.695H771.594V177.547H768.992V174.695ZM768.992 180.133H771.594V183H768.992V180.133ZM786.234 180.969H788.812V173.398L786.414 173.992V171.914L788.828 171.336H791.055V180.969H793.633V183H786.234V180.969ZM799.43 177.156C798.93 177.156 798.547 177.339 798.281 177.703C798.021 178.062 797.891 178.586 797.891 179.273C797.891 179.956 798.021 180.479 798.281 180.844C798.547 181.203 798.93 181.383 799.43 181.383C799.93 181.383 800.312 181.203 800.578 180.844C800.849 180.479 800.984 179.956 800.984 179.273C800.984 178.591 800.849 178.068 800.578 177.703C800.312 177.339 799.93 177.156 799.43 177.156ZM802.453 171.609V173.703C802.042 173.469 801.646 173.294 801.266 173.18C800.891 173.06 800.529 173 800.18 173C799.346 173 798.711 173.281 798.273 173.844C797.841 174.401 797.615 175.227 797.594 176.32C797.839 175.982 798.151 175.729 798.531 175.562C798.911 175.391 799.359 175.305 799.875 175.305C800.927 175.305 801.74 175.638 802.312 176.305C802.885 176.966 803.172 177.906 803.172 179.125C803.172 180.432 802.849 181.445 802.203 182.164C801.562 182.883 800.659 183.242 799.492 183.242C798.07 183.242 797.036 182.766 796.391 181.812C795.75 180.859 795.43 179.32 795.43 177.195C795.43 175.174 795.823 173.661 796.609 172.656C797.396 171.646 798.576 171.141 800.148 171.141C800.513 171.141 800.888 171.18 801.273 171.258C801.664 171.336 802.057 171.453 802.453 171.609ZM807.5 181.766V186.328H805.219V174.25H807.5V175.562C807.74 175.057 808.055 174.677 808.445 174.422C808.836 174.167 809.294 174.039 809.82 174.039C810.82 174.039 811.596 174.44 812.148 175.242C812.701 176.044 812.977 177.174 812.977 178.633C812.977 180.112 812.695 181.247 812.133 182.039C811.576 182.831 810.779 183.227 809.742 183.227C809.273 183.227 808.852 183.107 808.477 182.867C808.107 182.622 807.781 182.255 807.5 181.766ZM810.688 178.617C810.688 177.773 810.547 177.112 810.266 176.633C809.984 176.154 809.596 175.914 809.102 175.914C808.607 175.914 808.216 176.154 807.93 176.633C807.643 177.112 807.5 177.773 807.5 178.617C807.5 179.461 807.643 180.122 807.93 180.602C808.216 181.081 808.607 181.32 809.102 181.32C809.596 181.32 809.984 181.081 810.266 180.602C810.547 180.122 810.688 179.461 810.688 178.617ZM822.633 174.25L819.688 178.438L822.891 183H820.219L818.5 180.055L816.789 183H814.117L817.352 178.438L814.375 174.25H817.047L818.5 176.859L819.961 174.25H822.633Z" fill="#FFF3D5"/>
</svg>
